<?xml version="1.0" standalone="no"?>
<!DOCTYPE svg PUBLIC "-//W3C//DTD SVG 20010904//EN"
 "http://www.w3.org/TR/2001/REC-SVG-20010904/DTD/svg10.dtd">
<svg version="1.0" xmlns="http://www.w3.org/2000/svg"
 width="700.000000pt" height="700.000000pt" viewBox="0 0 700.000000 700.000000"
 preserveAspectRatio="xMidYMid meet">
<metadata>
Created by potrace 1.14, written by Peter Selinger 2001-2017
</metadata>
<g transform="translate(0.000000,700.000000) scale(0.100000,-0.100000)"
fill="#000000" stroke="none">
<path d="M973 5952 c-12 -2 -34 -17 -49 -35 -21 -25 -25 -38 -21 -69 4 -32 36
-72 208 -265 112 -126 217 -243 234 -262 16 -18 41 -46 55 -61 14 -15 52 -58
85 -96 52 -59 115 -129 165 -184 17 -19 223 -251 260 -294 14 -16 24 -33 22
-38 -1 -6 -41 -74 -89 -151 -47 -78 -94 -155 -103 -172 -10 -16 -157 -263
-329 -548 -183 -305 -317 -540 -326 -570 -26 -87 -20 -152 29 -296 50 -150 94
-218 175 -270 81 -53 131 -61 367 -61 291 0 280 -4 460 173 l142 138 78 20
c42 10 87 21 98 23 104 20 247 61 365 105 63 23 88 28 97 20 15 -12 134 -177
134 -185 0 -6 74 -116 99 -147 27 -34 122 -139 178 -197 58 -61 81 -116 107
-265 14 -77 14 -260 1 -350 -17 -124 -79 -305 -154 -453 -65 -129 -68 -135
-129 -225 -70 -102 -77 -125 -58 -171 8 -20 22 -39 30 -42 14 -5 14 -9 0 -29
-15 -23 -15 -24 23 -40 39 -17 224 -82 233 -82 3 -1 37 -10 75 -21 59 -18 129
-36 230 -58 96 -22 301 -57 400 -68 194 -23 579 -24 705 -2 14 3 45 7 70 10
215 28 459 102 661 201 l86 42 84 -50 c151 -89 379 -184 489 -202 25 -4 53 -9
63 -11 28 -5 103 34 122 63 30 45 35 80 19 136 -31 112 -43 164 -49 202 -7 44
-8 289 -1 320 2 11 7 41 10 67 4 26 16 91 27 145 32 153 26 417 -17 646 -55
302 -161 545 -358 821 -23 33 -23 33 -127 160 l-72 90 -2 175 c-2 175 -13 253
-51 376 -28 90 -85 215 -142 310 -122 204 -360 429 -593 562 -65 37 -68 41
-104 120 -79 176 -247 390 -398 508 -77 60 -259 163 -360 203 -106 42 -298 96
-384 108 -26 3 -57 8 -68 10 -128 25 -496 25 -662 0 -22 -3 -42 2 -65 17 -89
59 -245 113 -383 132 -88 12 -243 14 -280 4 -40 -11 -63 -41 -66 -84 -2 -27
47 -198 122 -430 16 -49 29 -93 29 -97 0 -5 -150 68 -332 161 -183 93 -486
246 -673 341 -186 94 -346 173 -355 174 -8 1 -25 0 -37 -2z"/>
</g>
</svg>
